<?xml version="1.0" encoding="UTF-8"?>
<svg width="600" height="400" viewBox="0 0 600 400" fill="none" xmlns="http://www.w3.org/2000/svg">
    <!-- Building -->
    <path d="M100 350 L500 350 L500 150 L100 150 Z" fill="#2c3e50" opacity="0.1"/>
    <path d="M150 350 L150 200 L200 200 L200 350" fill="#3498db" opacity="0.2"/>
    <path d="M250 350 L250 180 L300 180 L300 350" fill="#3498db" opacity="0.2"/>
    <path d="M350 350 L350 220 L400 220 L400 350" fill="#3498db" opacity="0.2"/>
    
    <!-- Windows -->
    <rect x="160" y="210" width="30" height="30" fill="#3498db" opacity="0.3"/>
    <rect x="160" y="250" width="30" height="30" fill="#3498db" opacity="0.3"/>
    <rect x="160" y="290" width="30" height="30" fill="#3498db" opacity="0.3"/>
    
    <rect x="260" y="190" width="30" height="30" fill="#3498db" opacity="0.3"/>
    <rect x="260" y="230" width="30" height="30" fill="#3498db" opacity="0.3"/>
    <rect x="260" y="270" width="30" height="30" fill="#3498db" opacity="0.3"/>
    
    <rect x="360" y="230" width="30" height="30" fill="#3498db" opacity="0.3"/>
    <rect x="360" y="270" width="30" height="30" fill="#3498db" opacity="0.3"/>
    <rect x="360" y="310" width="30" height="30" fill="#3498db" opacity="0.3"/>
    
    <!-- Roof -->
    <path d="M80 150 L520 150 L520 120 L80 120 Z" fill="#2c3e50" opacity="0.2"/>
    
    <!-- Decorative Elements -->
    <circle cx="300" cy="100" r="40" fill="#3498db" opacity="0.1"/>
    <circle cx="300" cy="100" r="30" fill="#3498db" opacity="0.2"/>
    <circle cx="300" cy="100" r="20" fill="#3498db" opacity="0.3"/>
    
    <!-- Ground -->
    <path d="M50 350 L550 350 L550 370 L50 370 Z" fill="#2c3e50" opacity="0.2"/>
</svg> 